<?xml version="1.0" standalone="no"?><!DOCTYPE svg PUBLIC "-//W3C//DTD SVG 1.1//EN" "http://www.w3.org/Graphics/SVG/1.1/DTD/svg11.dtd"><svg t="1653532572415" class="icon" viewBox="0 0 1024 1024" version="1.1" xmlns="http://www.w3.org/2000/svg" p-id="1830" xmlns:xlink="http://www.w3.org/1999/xlink" width="10" height="10"><defs><style type="text/css">@font-face { font-family: feedback-iconfont; src: url("//at.alicdn.com/t/font_1031158_u69w8yhxdu.woff2?t=1630033759944") format("woff2"), url("//at.alicdn.com/t/font_1031158_u69w8yhxdu.woff?t=1630033759944") format("woff"), url("//at.alicdn.com/t/font_1031158_u69w8yhxdu.ttf?t=1630033759944") format("truetype"); }
</style></defs><path d="M512 943.7696c-3.7376 0-7.424-0.6656-10.9568-2.048-14.4896-5.5296-354.7136-138.8032-354.7136-411.6992v-269.312c0-12.2368 7.2704-23.296 18.4832-28.16L498.176 87.4496c7.8336-3.4304 16.6912-3.4304 24.5248 0l333.3632 145.1008c11.2128 4.864 18.4832 15.9232 18.4832 28.16v269.312c0 270.1312-336.8448 405.9648-351.1808 411.5968-3.7376 1.4336-7.5264 2.1504-11.3664 2.1504zM207.7184 280.832v249.1392c0 205.5168 248.0128 325.2224 304.0768 349.6448 55.6544-24.8832 301.1584-146.3296 301.1584-349.6448V280.832l-302.592-131.6864-302.6432 131.6864z" fill="#444444" p-id="1831"></path><path d="M480.3072 639.1808a30.5664 30.5664 0 0 1-21.7088-9.0112l-122.88-122.88c-11.9808-11.9808-11.9808-31.4368 0-43.4688a30.72 30.72 0 0 1 43.4176 0l100.864 100.864 171.7248-176.384c11.8272-12.1344 31.2832-12.4416 43.4176-0.5632a30.72 30.72 0 0 1 0.5632 43.4176l-193.4848 198.7072a30.65856 30.65856 0 0 1-21.8112 9.2672c0.0512 0.0512-0.0512 0.0512-0.1024 0.0512z" fill="#50DEFF" p-id="1832"></path></svg>