<?xml version="1.0" standalone="no"?><!DOCTYPE svg PUBLIC "-//W3C//DTD SVG 1.1//EN" "http://www.w3.org/Graphics/SVG/1.1/DTD/svg11.dtd"><svg t="1653531792040" class="icon" viewBox="0 0 1024 1024" version="1.1" xmlns="http://www.w3.org/2000/svg" p-id="1135" width="10" height="10" xmlns:xlink="http://www.w3.org/1999/xlink"><defs><style type="text/css">@font-face { font-family: feedback-iconfont; src: url("//at.alicdn.com/t/font_1031158_u69w8yhxdu.woff2?t=1630033759944") format("woff2"), url("//at.alicdn.com/t/font_1031158_u69w8yhxdu.woff?t=1630033759944") format("woff"), url("//at.alicdn.com/t/font_1031158_u69w8yhxdu.ttf?t=1630033759944") format("truetype"); }
</style></defs><path d="M777.1648 910.6432c-7.2192 0-14.2848-2.56-19.8656-7.2704l-98.7136-83.6096c-12.9536-10.9568-14.5408-30.3616-3.584-43.3152 10.9568-12.9536 30.3616-14.5408 43.3152-3.584l72.9088 61.7472 111.9744-161.536c9.6768-13.9264 28.8256-17.408 42.752-7.7312 13.9264 9.6768 17.408 28.8256 7.7312 42.752l-131.2768 189.3376a30.6688 30.6688 0 0 1-25.2416 13.2096z" fill="#1296db" p-id="1136"></path><path d="M630.4256 901.632H176.2304c-45.568 0-82.5856-37.0688-82.5856-82.5856v-65.9456c0-32.256 18.9952-61.7984 48.3328-75.1616l234.1376-106.7008c-55.9104-48.0768-89.7024-124.7744-89.7024-206.3872 0-141.7216 99.6864-257.024 222.208-257.024s222.208 115.3024 222.208 257.024c0 82.1248-34.1504 159.1296-90.5728 207.1552l173.1584 80.5888c15.36 7.168 22.0672 25.4464 14.8992 40.8064-7.168 15.36-25.4464 22.0672-40.8064 14.8992l-196.5056-91.4432a45.9008 45.9008 0 0 1-26.4192-38.144c-1.28-16.64 6.656-32.768 20.6336-41.984 51.9168-34.4064 84.1728-100.3008 84.1728-171.8272 0-107.8272-72.1408-195.584-160.768-195.584s-160.768 87.7568-160.768 195.584c0 71.2192 32 136.8576 83.5584 171.4176a46.34112 46.34112 0 0 1 20.4288 42.1888 45.85472 45.85472 0 0 1-26.7264 37.9904l-257.5872 117.4016a21.23264 21.23264 0 0 0-12.3904 19.2512v65.9456c0 11.6736 9.472 21.1456 21.1456 21.1456h454.1952c16.9472 0 30.72 13.7728 30.72 30.72s-13.824 30.6688-30.7712 30.6688z" fill="#1296db" p-id="1137"></path></svg>