<svg viewBox="0 0 659.75 479.42" xmlns:xlink="http://www.w3.org/1999/xlink" xmlns="http://www.w3.org/2000/svg"><defs><style>.cls-1{fill:none;}.cls-2{fill:#a5d7d3;opacity:0.8;}.cls-3{fill:#f59a00;}.cls-4{fill:#009e8f;}.cls-5{fill:#d1e8ec;}.cls-10,.cls-6{fill:#fff;}.cls-7{fill:#005560;}.cls-8{clip-path:url(#clip-path);}.cls-9{fill:#007e97;}.cls-10{opacity:0.2;}.cls-11{fill:#037c6d;}.cls-12{fill:#383838;}.cls-13{fill:#fab600;}.cls-14{fill:#e5dfdc;}.cls-15{clip-path:url(#clip-path-2);}.cls-16{fill:#6c4f3d;}.cls-17{fill:#036c7a;}.cls-18{fill:#a3413e;}</style><clipPath id="clip-path"><path d="M410,397.14a106.3,106.3,0,0,0,3.77-28.08c0-60.14-50.06-108.89-111.82-108.89S190.13,308.92,190.13,369.06a106.41,106.41,0,0,0,3.81,28.21c31,23.55,68.56,31.55,108,31.24C340.4,428.82,378.68,420.79,410,397.14Z" class="cls-1"></path></clipPath><clipPath id="clip-path-2"><path d="M506.69,446.6a44.34,44.34,0,0,0,1.38-11.75c-.43-25.11-21.68-45.12-47.47-44.68s-46.34,21.15-45.92,46.26a44.29,44.29,0,0,0,1.79,11.75c13.1,9.62,28.85,12.69,45.32,12.28C477.85,460.32,493.78,456.7,506.69,446.6Z" class="cls-2"></path></clipPath></defs><title>love</title><g id="Layer_2"><g id="Layer_1-2"><g id="love"><path d="M278.44,456.89,267.2,446.45V417.7a7,7,0,0,0-14,0v27.69a6.35,6.35,0,0,0-1.78,1.46l-10,12a6.53,6.53,0,0,0,10,8.39l2.91-3.47v2.92a6.54,6.54,0,1,0,13.07,0v-2.22l2.18,2a6.53,6.53,0,1,0,8.88-9.57Z" class="cls-3"></path><path d="M362,456.89,350.7,446.45V417.7a7,7,0,1,0-14,0v27.69a6.35,6.35,0,0,0-1.78,1.46l-10,12a6.53,6.53,0,0,0,10,8.39l2.91-3.47v2.92a6.53,6.53,0,1,0,13.06,0v-2.22l2.18,2a6.53,6.53,0,0,0,8.89-9.57Z" class="cls-3"></path><path d="M462.65,33.94c-8.83-3.48-46.35,37.33-46.35,37.33C371.53,55.12,333.19,50.05,302,50.46c-31.24-.41-69.58,4.66-114.35,20.81,0,0-37.52-40.81-46.35-37.33s-53.71,242.6,30.17,341.19c34.28,40.29,80.93,53,130.53,52.62,48.25.39,96.26-12.33,130.53-52.62C516.36,276.54,471.48,37.43,462.65,33.94Z" class="cls-4"></path><path d="M383.34,88A83.71,83.71,0,0,0,302,152.21a83.69,83.69,0,1,0,0,39A83.69,83.69,0,1,0,383.34,88Z" class="cls-5"></path><path d="M326.5,169.68a61.07,61.07,0,1,0,61.07-61.07A61.07,61.07,0,0,0,326.5,169.68Z" class="cls-6"></path><path d="M341.22,175.2a38.63,38.63,0,1,0,38.62-38.63A38.62,38.62,0,0,0,341.22,175.2Z" class="cls-7"></path><path d="M383.15,156.44a11,11,0,1,0,11-11A11,11,0,0,0,383.15,156.44Z" class="cls-6"></path><path d="M277.4,169.68a61.07,61.07,0,1,1-61.06-61.07A61.06,61.06,0,0,1,277.4,169.68Z" class="cls-6"></path><path d="M262.69,175.2a38.63,38.63,0,1,1-38.63-38.63A38.63,38.63,0,0,1,262.69,175.2Z" class="cls-7"></path><path d="M220.75,156.44a11,11,0,1,1-11-11A11,11,0,0,1,220.75,156.44Z" class="cls-6"></path><polygon points="280.02 196 301.95 226.28 301.95 175.2 280.02 196" class="cls-3"></polygon><polygon points="301.95 175.2 301.95 226.28 323.88 196 301.95 175.2" class="cls-3"></polygon><path d="M410,397.14a106.3,106.3,0,0,0,3.77-28.08c0-60.14-50.06-108.89-111.82-108.89S190.13,308.92,190.13,369.06a106.41,106.41,0,0,0,3.81,28.21c31,23.55,68.56,31.55,108,31.24C340.4,428.82,378.68,420.79,410,397.14Z" class="cls-5"></path><g class="cls-8"><polygon points="256.56 304.8 237.21 304.8 247.1 314.69 256.56 304.8" class="cls-9"></polygon><polygon points="278.18 304.8 258.83 304.8 268.72 314.69 278.18 304.8" class="cls-9"></polygon><polygon points="299.81 304.8 280.45 304.8 290.34 314.69 299.81 304.8" class="cls-9"></polygon><polygon points="321.43 304.8 302.08 304.8 311.96 314.69 321.43 304.8" class="cls-9"></polygon><polygon points="343.05 304.8 323.7 304.8 333.59 314.69 343.05 304.8" class="cls-9"></polygon><polygon points="364.67 304.8 345.32 304.8 355.21 314.69 364.67 304.8" class="cls-9"></polygon><polygon points="386.3 304.8 366.94 304.8 376.83 314.69 386.3 304.8" class="cls-9"></polygon><polygon points="234.94 304.8 215.58 304.8 225.47 314.69 234.94 304.8" class="cls-9"></polygon><polygon points="267.37 291.86 248.02 291.86 257.91 301.75 267.37 291.86" class="cls-9"></polygon><polygon points="288.99 291.86 269.64 291.86 279.53 301.75 288.99 291.86" class="cls-9"></polygon><polygon points="310.62 291.86 291.26 291.86 301.15 301.75 310.62 291.86" class="cls-9"></polygon><polygon points="332.24 291.86 312.89 291.86 322.77 301.75 332.24 291.86" class="cls-9"></polygon><polygon points="353.86 291.86 334.51 291.86 344.4 301.75 353.86 291.86" class="cls-9"></polygon><polygon points="375.48 291.86 356.13 291.86 366.02 301.75 375.48 291.86" class="cls-9"></polygon><polygon points="245.75 291.86 226.4 291.86 236.28 301.75 245.75 291.86" class="cls-9"></polygon><polygon points="418.73 291.86 399.38 291.86 409.27 301.75 418.73 291.86" class="cls-9"></polygon><polygon points="245.75 266 226.4 266 236.28 275.88 245.75 266" class="cls-9"></polygon><polygon points="267.37 266 248.02 266 257.91 275.88 267.37 266" class="cls-9"></polygon><polygon points="289 266 269.64 266 279.53 275.88 289 266" class="cls-9"></polygon><polygon points="310.62 266 291.26 266 301.15 275.88 310.62 266" class="cls-9"></polygon><polygon points="332.24 266 312.89 266 322.77 275.88 332.24 266" class="cls-9"></polygon><polygon points="353.86 266 334.51 266 344.4 275.88 353.86 266" class="cls-9"></polygon><polygon points="375.48 266 356.13 266 366.02 275.88 375.48 266" class="cls-9"></polygon><polygon points="224.12 266 204.77 266 214.66 275.88 224.12 266" class="cls-9"></polygon><polygon points="418.73 266 399.38 266 409.27 275.88 418.73 266" class="cls-9"></polygon><polygon points="397.11 266 377.76 266 387.65 275.88 397.11 266" class="cls-9"></polygon><polygon points="256.56 278.93 237.21 278.93 247.1 288.82 256.56 278.93" class="cls-9"></polygon><polygon points="278.18 278.93 258.83 278.93 268.72 288.82 278.18 278.93" class="cls-9"></polygon><polygon points="299.81 278.93 280.45 278.93 290.34 288.82 299.81 278.93" class="cls-9"></polygon><polygon points="321.43 278.93 302.08 278.93 311.96 288.82 321.43 278.93" class="cls-9"></polygon><polygon points="343.05 278.93 323.7 278.93 333.59 288.82 343.05 278.93" class="cls-9"></polygon><polygon points="364.67 278.93 345.32 278.93 355.21 288.82 364.67 278.93" class="cls-9"></polygon><polygon points="234.94 278.93 215.58 278.93 225.47 288.82 234.94 278.93" class="cls-9"></polygon><polygon points="429.54 278.93 410.19 278.93 420.08 288.82 429.54 278.93" class="cls-9"></polygon><polygon points="407.92 278.93 388.57 278.93 398.46 288.82 407.92 278.93" class="cls-9"></polygon><polygon points="255.42 356.54 236.07 356.54 245.96 366.42 255.42 356.54" class="cls-9"></polygon><polygon points="277.04 356.54 257.69 356.54 267.58 366.42 277.04 356.54" class="cls-9"></polygon><polygon points="298.67 356.54 279.32 356.54 289.21 366.42 298.67 356.54" class="cls-9"></polygon><polygon points="320.29 356.54 300.94 356.54 310.83 366.42 320.29 356.54" class="cls-9"></polygon><polygon points="341.91 356.54 322.56 356.54 332.45 366.42 341.91 356.54" class="cls-9"></polygon><polygon points="363.54 356.54 344.19 356.54 354.07 366.42 363.54 356.54" class="cls-9"></polygon><polygon points="385.16 356.54 365.81 356.54 375.7 366.42 385.16 356.54" class="cls-9"></polygon><polygon points="233.8 356.54 214.45 356.54 224.34 366.42 233.8 356.54" class="cls-9"></polygon><polygon points="212.18 356.54 192.82 356.54 202.71 366.42 212.18 356.54" class="cls-9"></polygon><polygon points="428.41 356.54 409.05 356.54 418.94 366.42 428.41 356.54" class="cls-9"></polygon><polygon points="406.78 356.54 387.43 356.54 397.32 366.42 406.78 356.54" class="cls-9"></polygon><polygon points="202.5 343.6 183.15 343.6 193.03 353.49 202.5 343.6" class="cls-9"></polygon><polygon points="266.23 343.6 246.88 343.6 256.77 353.49 266.23 343.6" class="cls-9"></polygon><polygon points="287.86 343.6 268.5 343.6 278.39 353.49 287.86 343.6" class="cls-9"></polygon><polygon points="309.48 343.6 290.13 343.6 300.02 353.49 309.48 343.6" class="cls-9"></polygon><polygon points="331.1 343.6 311.75 343.6 321.64 353.49 331.1 343.6" class="cls-9"></polygon><polygon points="352.73 343.6 333.37 343.6 343.26 353.49 352.73 343.6" class="cls-9"></polygon><polygon points="374.35 343.6 355 343.6 364.89 353.49 374.35 343.6" class="cls-9"></polygon><polygon points="395.97 343.6 376.62 343.6 386.51 353.49 395.97 343.6" class="cls-9"></polygon><polygon points="244.61 343.6 225.26 343.6 235.15 353.49 244.61 343.6" class="cls-9"></polygon><polygon points="222.99 343.6 203.64 343.6 213.53 353.49 222.99 343.6" class="cls-9"></polygon><polygon points="417.6 343.6 398.24 343.6 408.13 353.49 417.6 343.6" class="cls-9"></polygon><polygon points="201.37 317.73 182.01 317.73 191.9 327.62 201.37 317.73" class="cls-9"></polygon><polygon points="244.61 317.73 225.26 317.73 235.15 327.62 244.61 317.73" class="cls-9"></polygon><polygon points="266.23 317.73 246.88 317.73 256.77 327.62 266.23 317.73" class="cls-9"></polygon><polygon points="287.86 317.73 268.51 317.73 278.39 327.62 287.86 317.73" class="cls-9"></polygon><polygon points="309.48 317.73 290.13 317.73 300.02 327.62 309.48 317.73" class="cls-9"></polygon><polygon points="331.1 317.73 311.75 317.73 321.64 327.62 331.1 317.73" class="cls-9"></polygon><polygon points="352.73 317.73 333.38 317.73 343.26 327.62 352.73 317.73" class="cls-9"></polygon><polygon points="374.35 317.73 355 317.73 364.89 327.62 374.35 317.73" class="cls-9"></polygon><polygon points="222.99 317.73 203.64 317.73 213.53 327.62 222.99 317.73" class="cls-9"></polygon><polygon points="395.97 317.73 376.62 317.73 386.51 327.62 395.97 317.73" class="cls-9"></polygon><polygon points="255.42 330.67 236.07 330.67 245.96 340.56 255.42 330.67" class="cls-9"></polygon><polygon points="277.04 330.67 257.69 330.67 267.58 340.56 277.04 330.67" class="cls-9"></polygon><polygon points="298.67 330.67 279.32 330.67 289.21 340.56 298.67 330.67" class="cls-9"></polygon><polygon points="320.29 330.67 300.94 330.67 310.83 340.56 320.29 330.67" class="cls-9"></polygon><polygon points="341.91 330.67 322.56 330.67 332.45 340.56 341.91 330.67" class="cls-9"></polygon><polygon points="363.54 330.67 344.19 330.67 354.07 340.56 363.54 330.67" class="cls-9"></polygon><polygon points="385.16 330.67 365.81 330.67 375.7 340.56 385.16 330.67" class="cls-9"></polygon><polygon points="233.8 330.67 214.45 330.67 224.34 340.56 233.8 330.67" class="cls-9"></polygon><polygon points="212.18 330.67 192.82 330.67 202.71 340.56 212.18 330.67" class="cls-9"></polygon><polygon points="428.41 330.67 409.05 330.67 418.94 340.56 428.41 330.67" class="cls-9"></polygon><polygon points="406.78 330.67 387.43 330.67 397.32 340.56 406.78 330.67" class="cls-9"></polygon><polygon points="233.8 408.27 214.45 408.27 224.34 418.16 233.8 408.27" class="cls-9"></polygon><polygon points="255.42 408.27 236.07 408.27 245.96 418.16 255.42 408.27" class="cls-9"></polygon><polygon points="277.05 408.27 257.7 408.27 267.58 418.16 277.05 408.27" class="cls-9"></polygon><polygon points="298.67 408.27 279.32 408.27 289.21 418.16 298.67 408.27" class="cls-9"></polygon><polygon points="320.29 408.27 300.94 408.27 310.83 418.16 320.29 408.27" class="cls-9"></polygon><polygon points="341.92 408.27 322.56 408.27 332.45 418.16 341.92 408.27" class="cls-9"></polygon><polygon points="363.54 408.27 344.19 408.27 354.07 418.16 363.54 408.27" class="cls-9"></polygon><polygon points="385.16 408.27 365.81 408.27 375.7 418.16 385.16 408.27" class="cls-9"></polygon><polygon points="416.46 395.34 397.11 395.34 407 405.23 416.46 395.34" class="cls-9"></polygon><polygon points="244.61 395.34 225.26 395.34 235.15 405.23 244.61 395.34" class="cls-9"></polygon><polygon points="266.23 395.34 246.88 395.34 256.77 405.23 266.23 395.34" class="cls-9"></polygon><polygon points="287.86 395.34 268.51 395.34 278.4 405.23 287.86 395.34" class="cls-9"></polygon><polygon points="309.48 395.34 290.13 395.34 300.02 405.23 309.48 395.34" class="cls-9"></polygon><polygon points="331.1 395.34 311.75 395.34 321.64 405.23 331.1 395.34" class="cls-9"></polygon><polygon points="352.73 395.34 333.38 395.34 343.26 405.23 352.73 395.34" class="cls-9"></polygon><polygon points="374.35 395.34 355 395.34 364.89 405.23 374.35 395.34" class="cls-9"></polygon><polygon points="222.99 395.34 203.64 395.34 213.53 405.23 222.99 395.34" class="cls-9"></polygon><polygon points="201.37 395.34 182.01 395.34 191.9 405.23 201.37 395.34" class="cls-9"></polygon><polygon points="395.98 395.34 376.62 395.34 386.51 405.23 395.98 395.34" class="cls-9"></polygon><polygon points="417.1 369.47 397.75 369.47 407.64 379.36 417.1 369.47" class="cls-9"></polygon><polygon points="222.99 369.47 203.64 369.47 213.53 379.36 222.99 369.47" class="cls-9"></polygon><polygon points="244.61 369.47 225.26 369.47 235.15 379.36 244.61 369.47" class="cls-9"></polygon><polygon points="266.24 369.47 246.89 369.47 256.77 379.36 266.24 369.47" class="cls-9"></polygon><polygon points="287.86 369.47 268.51 369.47 278.39 379.36 287.86 369.47" class="cls-9"></polygon><polygon points="309.48 369.47 290.13 369.47 300.02 379.36 309.48 369.47" class="cls-9"></polygon><polygon points="331.11 369.47 311.75 369.47 321.64 379.36 331.11 369.47" class="cls-9"></polygon><polygon points="352.73 369.47 333.38 369.47 343.26 379.36 352.73 369.47" class="cls-9"></polygon><polygon points="201.37 369.47 182.01 369.47 191.9 379.36 201.37 369.47" class="cls-9"></polygon><polygon points="395.98 369.47 376.62 369.47 386.51 379.36 395.98 369.47" class="cls-9"></polygon><polygon points="374.35 369.47 355 369.47 364.89 379.36 374.35 369.47" class="cls-9"></polygon><polygon points="233.8 382.4 214.45 382.4 224.34 392.29 233.8 382.4" class="cls-9"></polygon><polygon points="255.42 382.4 236.07 382.4 245.96 392.29 255.42 382.4" class="cls-9"></polygon><polygon points="277.05 382.4 257.7 382.4 267.58 392.29 277.05 382.4" class="cls-9"></polygon><polygon points="298.67 382.4 279.32 382.4 289.21 392.29 298.67 382.4" class="cls-9"></polygon><polygon points="320.29 382.4 300.94 382.4 310.83 392.29 320.29 382.4" class="cls-9"></polygon><polygon points="341.92 382.4 322.56 382.4 332.45 392.29 341.92 382.4" class="cls-9"></polygon><polygon points="363.54 382.4 344.19 382.4 354.07 392.29 363.54 382.4" class="cls-9"></polygon><polygon points="212.18 382.4 192.83 382.4 202.71 392.29 212.18 382.4" class="cls-9"></polygon><polygon points="427.27 382.4 407.92 382.4 417.81 392.29 427.27 382.4" class="cls-9"></polygon><polygon points="406.78 382.4 387.43 382.4 397.32 392.29 406.78 382.4" class="cls-9"></polygon><polygon points="385.16 382.4 365.81 382.4 375.7 392.29 385.16 382.4" class="cls-9"></polygon></g><path d="M209.62,1.12s5.88,42.4,8,43.94S212.09-8.47,209.62,1.12Z" class="cls-10"></path><path d="M73.63,427.17c-6.66,8.2,33.27,5.12,72.1-11.27s73.71-83.37,44-132.86-81.35-12.83-81.35-12.83C86.46,288.46,67,321.63,44.79,341.1S6,361.59.42,369.79,45.9,377,45.9,377,11.51,388.23,7.08,396.43s53.24,1,53.24,1S32.59,411.8,29.26,422.05,94.7,406.68,98,404.63,80.28,419,73.63,427.17Z" class="cls-9"></path><path d="M128.2,382.71c8.83,5.29,29.13-31.77,32.66-36.19s1.76,4.42,3.53,14.13,14.12-9.71,15.88-37.07S166.15,283,166.15,283c-23.82-16.76-52.95,14.12-69.72,28.24s-38.83,30.89-50.3,45,37.95,6.18,37.95,6.18-2.65,9.71-6.18,22.95,45.89-24.71,45.89-24.71S119.38,377.41,128.2,382.71Z" class="cls-2"></path><path d="M560.7,418.08c8.49,6.28-31,13.25-72.63,7s-92.15-62.39-75.65-117.73S488,274.7,488,274.7c25.72,12.23,52.86,39.51,79.19,52.84s42.7,10.18,50.11,16.74-42.25,18.27-42.25,18.27,36.1,2.35,42.44,9.18S566.19,386,566.19,386s30.43,7,36.21,16.08-67.21,1.41-70.94.25S552.22,411.8,560.7,418.08Z" class="cls-9"></path><path d="M496.77,388.61c-7.23,7.32-36.11-23.52-40.63-26.91s-.61,4.71.09,14.55-16.09-5.88-24.61-31.94,3.57-42.83,3.57-42.83c18.9-22.18,54.79.48,74.55,10s45.3,20.25,59.93,31.07S534.45,358,534.45,358s5,8.74,11.7,20.69-50.6-12.51-50.6-12.51S504,381.28,496.77,388.61Z" class="cls-2"></path><path d="M452.18,472.48l-4.77-4.28-.21-12a2.92,2.92,0,1,0-5.84.1l.19,11.57a2.51,2.51,0,0,0-.73.62l-4.1,5.07A2.73,2.73,0,1,0,441,477l1.19-1.47,0,1.23a2.73,2.73,0,0,0,5.46-.1l0-.93.93.83a2.73,2.73,0,0,0,3.64-4.06Z" class="cls-3"></path><path d="M487.05,471.89l-4.77-4.28-.21-12a2.92,2.92,0,1,0-5.84.1l.19,11.57a2.65,2.65,0,0,0-.73.62l-4.1,5.07a2.73,2.73,0,1,0,4.24,3.43l1.19-1.47,0,1.23a2.73,2.73,0,0,0,5.46-.1l0-.93.92.83a2.73,2.73,0,1,0,3.65-4.06Z" class="cls-3"></path><path d="M526.11,294.57c-3.71-1.4-19.09,15.91-19.09,15.91-18.81-6.43-34.85-8.27-47.9-7.88-13,0-29,2.44-47.6,9.5,0,0-16-16.78-19.62-15.26s-20.71,101.68,15,142.26c14.6,16.58,34.17,21.56,54.88,21,20.15-.17,40.1-5.82,54.13-22.89C550.25,395.49,529.82,296,526.11,294.57Z" class="cls-11"></path><path d="M493.37,317.7a35,35,0,0,0-33.53,27.38,34.95,34.95,0,1,0,.28,16.29,35,35,0,1,0,33.25-43.67Z" class="cls-2"></path><path d="M470.22,352.21a25.5,25.5,0,1,0,25.06-25.93A25.49,25.49,0,0,0,470.22,352.21Z" class="cls-6"></path><path d="M479.36,354a18.26,18.26,0,1,0,17.95-18.56A18.26,18.26,0,0,0,479.36,354Z" class="cls-12"></path><path d="M493.78,346.28a4.61,4.61,0,1,0,4.53-4.69A4.61,4.61,0,0,0,493.78,346.28Z" class="cls-6"></path><path d="M449.71,352.55a25.5,25.5,0,1,1-25.93-25.07A25.49,25.49,0,0,1,449.71,352.55Z" class="cls-6"></path><path d="M442.25,354.67a18.25,18.25,0,1,1-18.56-17.95A18.25,18.25,0,0,1,442.25,354.67Z" class="cls-12"></path><path d="M426,347.42a4.61,4.61,0,1,1-4.68-4.53A4.6,4.6,0,0,1,426,347.42Z" class="cls-6"></path><polygon points="451 363.53 460.36 376.02 460 354.69 451 363.53" class="cls-13"></polygon><polygon points="460 354.69 460.36 376.02 469.31 363.22 460 354.69" class="cls-3"></polygon><path d="M506.69,446.6a44.34,44.34,0,0,0,1.38-11.75c-.43-25.11-21.68-45.12-47.47-44.68s-46.34,21.15-45.92,46.26a44.29,44.29,0,0,0,1.79,11.75c13.1,9.62,28.85,12.69,45.32,12.28C477.85,460.32,493.78,456.7,506.69,446.6Z" class="cls-14"></path><path d="M506.69,446.6a44.34,44.34,0,0,0,1.38-11.75c-.43-25.11-21.68-45.12-47.47-44.68s-46.34,21.15-45.92,46.26a44.29,44.29,0,0,0,1.79,11.75c13.1,9.62,28.85,12.69,45.32,12.28C477.85,460.32,493.78,456.7,506.69,446.6Z" class="cls-2"></path><g class="cls-15"><polygon points="441.96 409.13 433.88 409.26 438.08 413.32 441.96 409.13" class="cls-9"></polygon><polygon points="451 408.97 442.91 409.11 447.11 413.17 451 408.97" class="cls-9"></polygon><polygon points="460.02 408.82 451.94 408.96 456.14 413.01 460.02 408.82" class="cls-9"></polygon><polygon points="469.05 408.67 460.97 408.8 465.17 412.86 469.05 408.67" class="cls-9"></polygon><polygon points="478.08 408.51 470 408.65 474.2 412.71 478.08 408.51" class="cls-9"></polygon><polygon points="487.11 408.36 479.03 408.5 483.23 412.56 487.11 408.36" class="cls-9"></polygon><polygon points="496.14 408.21 488.06 408.35 492.26 412.4 496.14 408.21" class="cls-9"></polygon><polygon points="432.94 409.28 424.86 409.41 429.05 413.47 432.94 409.28" class="cls-9"></polygon><polygon points="446.39 403.65 438.31 403.78 442.5 407.84 446.39 403.65" class="cls-9"></polygon><polygon points="455.42 403.49 447.34 403.63 451.54 407.69 455.42 403.49" class="cls-9"></polygon><polygon points="464.45 403.34 456.37 403.48 460.57 407.54 464.45 403.34" class="cls-9"></polygon><polygon points="473.48 403.19 465.4 403.32 469.59 407.38 473.48 403.19" class="cls-9"></polygon><polygon points="482.51 403.04 474.43 403.17 478.62 407.23 482.51 403.04" class="cls-9"></polygon><polygon points="491.54 402.88 483.45 403.02 487.65 407.08 491.54 402.88" class="cls-9"></polygon><polygon points="437.36 403.8 429.28 403.94 433.48 408 437.36 403.8" class="cls-9"></polygon><polygon points="509.6 402.58 501.51 402.71 505.71 406.77 509.6 402.58" class="cls-16"></polygon><polygon points="437.18 393 429.1 393.13 433.3 397.19 437.18 393" class="cls-16"></polygon><polygon points="446.2 392.85 438.13 392.98 442.32 397.04 446.2 392.85" class="cls-9"></polygon><polygon points="455.24 392.69 447.15 392.83 451.35 396.89 455.24 392.69" class="cls-9"></polygon><polygon points="464.26 392.54 456.19 392.68 460.38 396.74 464.26 392.54" class="cls-9"></polygon><polygon points="473.29 392.39 465.21 392.52 469.41 396.58 473.29 392.39" class="cls-9"></polygon><polygon points="482.32 392.23 474.24 392.37 478.44 396.43 482.32 392.23" class="cls-9"></polygon><polygon points="491.35 392.08 483.27 392.22 487.47 396.28 491.35 392.08" class="cls-16"></polygon><polygon points="428.15 393.15 420.07 393.29 424.26 397.35 428.15 393.15" class="cls-16"></polygon><polygon points="509.41 391.78 501.33 391.91 505.53 395.97 509.41 391.78" class="cls-16"></polygon><polygon points="500.38 391.93 492.3 392.07 496.5 396.13 500.38 391.93" class="cls-16"></polygon><polygon points="441.78 398.32 433.7 398.46 437.9 402.52 441.78 398.32" class="cls-9"></polygon><polygon points="450.81 398.17 442.73 398.31 446.93 402.37 450.81 398.17" class="cls-9"></polygon><polygon points="459.84 398.02 451.76 398.15 455.96 402.21 459.84 398.02" class="cls-9"></polygon><polygon points="468.87 397.86 460.79 398 464.99 402.06 468.87 397.86" class="cls-9"></polygon><polygon points="477.9 397.71 469.82 397.85 474.02 401.91 477.9 397.71" class="cls-9"></polygon><polygon points="486.93 397.56 478.85 397.69 483.05 401.75 486.93 397.56" class="cls-9"></polygon><polygon points="432.75 398.47 424.67 398.61 428.87 402.67 432.75 398.47" class="cls-16"></polygon><polygon points="514.02 397.1 505.94 397.24 510.14 401.3 514.02 397.1" class="cls-16"></polygon><polygon points="504.99 397.25 496.91 397.39 501.11 401.45 504.99 397.25" class="cls-16"></polygon><polygon points="441.86 430.74 433.78 430.87 437.97 434.93 441.86 430.74" class="cls-9"></polygon><polygon points="450.88 430.58 442.8 430.72 447 434.78 450.88 430.58" class="cls-9"></polygon><polygon points="459.91 430.43 451.84 430.57 456.03 434.63 459.91 430.43" class="cls-9"></polygon><polygon points="468.94 430.28 460.86 430.41 465.06 434.48 468.94 430.28" class="cls-9"></polygon><polygon points="477.97 430.12 469.89 430.26 474.09 434.32 477.97 430.12" class="cls-9"></polygon><polygon points="487 429.97 478.92 430.11 483.12 434.17 487 429.97" class="cls-9"></polygon><polygon points="496.03 429.82 487.95 429.96 492.15 434.02 496.03 429.82" class="cls-9"></polygon><polygon points="432.82 430.89 424.75 431.02 428.94 435.09 432.82 430.89" class="cls-9"></polygon><polygon points="423.8 431.04 415.72 431.18 419.92 435.24 423.8 431.04" class="cls-9"></polygon><polygon points="514.09 429.51 506.01 429.65 510.21 433.71 514.09 429.51" class="cls-16"></polygon><polygon points="505.06 429.67 496.98 429.8 501.18 433.86 505.06 429.67" class="cls-9"></polygon><polygon points="419.67 425.71 411.58 425.85 415.78 429.9 419.67 425.71" class="cls-9"></polygon><polygon points="446.28 425.26 438.2 425.4 442.4 429.45 446.28 425.26" class="cls-9"></polygon><polygon points="455.31 425.11 447.23 425.24 451.43 429.3 455.31 425.11" class="cls-9"></polygon><polygon points="464.34 424.95 456.26 425.09 460.45 429.15 464.34 424.95" class="cls-9"></polygon><polygon points="473.37 424.8 465.29 424.94 469.49 429 473.37 424.8" class="cls-9"></polygon><polygon points="482.4 424.65 474.31 424.79 478.51 428.84 482.4 424.65" class="cls-9"></polygon><polygon points="491.43 424.5 483.34 424.63 487.54 428.69 491.43 424.5" class="cls-9"></polygon><polygon points="500.46 424.34 492.38 424.48 496.57 428.54 500.46 424.34" class="cls-9"></polygon><polygon points="437.25 425.41 429.17 425.55 433.37 429.61 437.25 425.41" class="cls-9"></polygon><polygon points="428.22 425.56 420.14 425.7 424.34 429.76 428.22 425.56" class="cls-9"></polygon><polygon points="509.49 424.19 501.4 424.33 505.6 428.39 509.49 424.19" class="cls-9"></polygon><polygon points="419.01 414.92 410.93 415.05 415.13 419.11 419.01 414.92" class="cls-16"></polygon><polygon points="437.07 414.61 428.99 414.75 433.19 418.81 437.07 414.61" class="cls-9"></polygon><polygon points="446.1 414.46 438.02 414.59 442.22 418.65 446.1 414.46" class="cls-9"></polygon><polygon points="455.13 414.3 447.05 414.44 451.25 418.5 455.13 414.3" class="cls-9"></polygon><polygon points="464.16 414.15 456.07 414.29 460.27 418.35 464.16 414.15" class="cls-9"></polygon><polygon points="473.18 414 465.1 414.14 469.3 418.19 473.18 414" class="cls-9"></polygon><polygon points="482.21 413.85 474.13 413.98 478.33 418.04 482.21 413.85" class="cls-9"></polygon><polygon points="491.24 413.69 483.16 413.83 487.36 417.89 491.24 413.69" class="cls-9"></polygon><polygon points="428.04 414.76 419.95 414.9 424.16 418.96 428.04 414.76" class="cls-9"></polygon><polygon points="500.27 413.54 492.19 413.68 496.39 417.74 500.27 413.54" class="cls-9"></polygon><polygon points="441.67 419.93 433.59 420.07 437.79 424.13 441.67 419.93" class="cls-9"></polygon><polygon points="450.7 419.78 442.62 419.92 446.82 423.98 450.7 419.78" class="cls-9"></polygon><polygon points="459.73 419.63 451.65 419.76 455.85 423.83 459.73 419.63" class="cls-9"></polygon><polygon points="468.76 419.48 460.68 419.61 464.88 423.67 468.76 419.48" class="cls-9"></polygon><polygon points="477.79 419.32 469.71 419.46 473.91 423.52 477.79 419.32" class="cls-9"></polygon><polygon points="486.82 419.17 478.74 419.31 482.94 423.37 486.82 419.17" class="cls-9"></polygon><polygon points="495.85 419.02 487.77 419.15 491.97 423.21 495.85 419.02" class="cls-9"></polygon><polygon points="432.64 420.09 424.56 420.22 428.76 424.28 432.64 420.09" class="cls-9"></polygon><polygon points="423.62 420.24 415.53 420.38 419.73 424.44 423.62 420.24" class="cls-9"></polygon><polygon points="513.91 418.71 505.83 418.85 510.03 422.91 513.91 418.71" class="cls-16"></polygon><polygon points="504.88 418.86 496.8 419 501 423.06 504.88 418.86" class="cls-9"></polygon><polygon points="433.19 452.49 425.11 452.63 429.31 456.69 433.19 452.49" class="cls-9"></polygon><polygon points="442.22 452.34 434.14 452.48 438.34 456.54 442.22 452.34" class="cls-9"></polygon><polygon points="451.25 452.19 443.17 452.32 447.37 456.38 451.25 452.19" class="cls-9"></polygon><polygon points="460.28 452.03 452.2 452.17 456.4 456.23 460.28 452.03" class="cls-9"></polygon><polygon points="469.31 451.88 461.23 452.02 465.43 456.08 469.31 451.88" class="cls-9"></polygon><polygon points="478.34 451.73 470.26 451.87 474.46 455.93 478.34 451.73" class="cls-9"></polygon><polygon points="487.37 451.57 479.29 451.71 483.49 455.77 487.37 451.57" class="cls-9"></polygon><polygon points="496.4 451.42 488.32 451.56 492.52 455.62 496.4 451.42" class="cls-9"></polygon><polygon points="509.38 445.8 501.29 445.94 505.49 450 509.38 445.8" class="cls-9"></polygon><polygon points="437.62 447.02 429.54 447.15 433.73 451.21 437.62 447.02" class="cls-9"></polygon><polygon points="446.64 446.86 438.56 447 442.76 451.06 446.64 446.86" class="cls-9"></polygon><polygon points="455.68 446.71 447.6 446.85 451.79 450.91 455.68 446.71" class="cls-9"></polygon><polygon points="464.71 446.56 456.62 446.69 460.82 450.75 464.71 446.56" class="cls-9"></polygon><polygon points="473.73 446.4 465.65 446.54 469.85 450.6 473.73 446.4" class="cls-9"></polygon><polygon points="482.76 446.25 474.68 446.39 478.88 450.45 482.76 446.25" class="cls-9"></polygon><polygon points="491.79 446.1 483.71 446.24 487.91 450.3 491.79 446.1" class="cls-9"></polygon><polygon points="428.59 447.17 420.51 447.31 424.7 451.36 428.59 447.17" class="cls-9"></polygon><polygon points="419.56 447.32 411.48 447.46 415.68 451.52 419.56 447.32" class="cls-9"></polygon><polygon points="500.82 445.95 492.74 446.08 496.94 450.14 500.82 445.95" class="cls-9"></polygon><polygon points="509.46 435 501.38 435.13 505.58 439.19 509.46 435" class="cls-9"></polygon><polygon points="428.4 436.37 420.32 436.5 424.52 440.56 428.4 436.37" class="cls-9"></polygon><polygon points="437.43 436.21 429.35 436.35 433.55 440.41 437.43 436.21" class="cls-9"></polygon><polygon points="446.46 436.06 438.38 436.2 442.58 440.26 446.46 436.06" class="cls-9"></polygon><polygon points="455.49 435.91 447.41 436.05 451.61 440.1 455.49 435.91" class="cls-9"></polygon><polygon points="464.52 435.75 456.44 435.89 460.64 439.95 464.52 435.75" class="cls-9"></polygon><polygon points="473.55 435.6 465.47 435.74 469.67 439.8 473.55 435.6" class="cls-9"></polygon><polygon points="482.58 435.45 474.5 435.59 478.7 439.65 482.58 435.45" class="cls-9"></polygon><polygon points="419.37 436.52 411.29 436.66 415.49 440.71 419.37 436.52" class="cls-9"></polygon><polygon points="500.64 435.14 492.56 435.28 496.76 439.34 500.64 435.14" class="cls-9"></polygon><polygon points="491.61 435.3 483.53 435.43 487.73 439.49 491.61 435.3" class="cls-9"></polygon><polygon points="433.01 441.69 424.93 441.83 429.13 445.89 433.01 441.69" class="cls-9"></polygon><polygon points="442.04 441.54 433.96 441.68 438.16 445.74 442.04 441.54" class="cls-9"></polygon><polygon points="451.07 441.39 442.99 441.52 447.19 445.58 451.07 441.39" class="cls-9"></polygon><polygon points="460.1 441.23 452.02 441.37 456.22 445.43 460.1 441.23" class="cls-9"></polygon><polygon points="469.13 441.08 461.05 441.22 465.25 445.28 469.13 441.08" class="cls-9"></polygon><polygon points="478.16 440.93 470.07 441.06 474.27 445.12 478.16 440.93" class="cls-9"></polygon><polygon points="487.19 440.77 479.11 440.91 483.31 444.97 487.19 440.77" class="cls-9"></polygon><polygon points="423.98 441.84 415.9 441.98 420.1 446.04 423.98 441.84" class="cls-9"></polygon><polygon points="513.8 440.32 505.72 440.46 509.92 444.52 513.8 440.32" class="cls-9"></polygon><polygon points="505.25 440.47 497.16 440.61 501.36 444.67 505.25 440.47" class="cls-9"></polygon><polygon points="496.21 440.62 488.14 440.76 492.33 444.82 496.21 440.62" class="cls-9"></polygon></g><path d="M413.43,450.62s-56.15-20.12-28.1-84C385.33,366.62,432.55,415.57,413.43,450.62Z" class="cls-17"></path><path d="M511,449s55.43-22,25.24-84.91C536.25,364.06,490.72,414.59,511,449Z" class="cls-17"></path><path d="M574.64,171.7s-39.8-22.78-45.72,3.5,43.44,62.27,43.44,62.27Z" class="cls-18"></path><path d="M574.64,171.7s35.24-21.33,41.16,4.94-43.44,62.28-43.44,62.28Z" class="cls-18"></path><path d="M632.75,238.33s-25.8-14.77-29.64,2.26S631.27,281,631.27,281Z" class="cls-18"></path><path d="M632.75,238.33s22.84-13.83,26.68,3.2-28.16,40.37-28.16,40.37Z" class="cls-18"></path></g></g></g></svg>